<svg width="23" height="23" viewBox="0 0 23 23" fill="none" xmlns="http://www.w3.org/2000/svg">
<mask id="mask0_90309_65" style="mask-type:alpha" maskUnits="userSpaceOnUse" x="0" y="0" width="23" height="23">
<g clip-path="url(#clip0_90309_65)">
<path d="M18.1774 14.2479C17.7065 13.7576 17.1385 13.4955 16.5366 13.4955C15.9395 13.4955 15.3667 13.7527 14.8764 14.243L13.3425 15.7721C13.2163 15.7042 13.0901 15.6411 12.9687 15.578C12.7939 15.4906 12.6289 15.4081 12.4881 15.3207C11.0512 14.4081 9.74544 13.2188 8.49302 11.6799C7.88624 10.913 7.47847 10.2673 7.18236 9.61201C7.58041 9.24794 7.94934 8.86931 8.30856 8.50523C8.44448 8.36931 8.5804 8.22854 8.71632 8.09262C9.73573 7.07321 9.73573 5.75284 8.71632 4.73344L7.3911 3.40821C7.24061 3.25773 7.08528 3.10239 6.93965 2.94705C6.64839 2.64608 6.34257 2.33541 6.02704 2.04415C5.55617 1.57814 4.99307 1.33057 4.40084 1.33057C3.80862 1.33057 3.23581 1.57814 2.75038 2.04415C2.74552 2.049 2.74552 2.049 2.74067 2.05386L1.09021 3.71889C0.468854 4.34024 0.114489 5.09751 0.0368205 5.97614C-0.0796829 7.3936 0.337788 8.71397 0.658172 9.57803C1.44457 11.6994 2.61931 13.6654 4.37172 15.7721C6.4979 18.3109 9.05612 20.3158 11.9784 21.7284C13.0949 22.2575 14.5852 22.8837 16.2502 22.9905C16.3522 22.9953 16.4589 23.0002 16.556 23.0002C17.6774 23.0002 18.6191 22.5973 19.357 21.7963C19.3618 21.7866 19.3715 21.7818 19.3764 21.7721C19.6288 21.4662 19.9201 21.1895 20.2259 20.8934C20.4346 20.6944 20.6482 20.4857 20.8569 20.2672C21.3375 19.7672 21.5899 19.1847 21.5899 18.5876C21.5899 17.9857 21.3327 17.408 20.8424 16.9226L18.1774 14.2479ZM19.9152 19.3595C19.9104 19.3595 19.9104 19.3643 19.9152 19.3595C19.7259 19.5633 19.5317 19.7478 19.323 19.9517C19.0075 20.2527 18.6871 20.5682 18.3861 20.9226C17.8958 21.4468 17.3182 21.6944 16.5609 21.6944C16.4881 21.6944 16.4104 21.6944 16.3376 21.6895C14.8959 21.5973 13.5561 21.0342 12.5512 20.5536C9.80369 19.2235 7.3911 17.3352 5.38627 14.942C3.73095 12.9469 2.62417 11.1023 1.89117 9.12173C1.43972 7.91301 1.27467 6.97127 1.34748 6.08293C1.39603 5.51498 1.61447 5.04411 2.01738 4.6412L3.6727 2.98589C3.91056 2.76259 4.16298 2.64123 4.41055 2.64123C4.71637 2.64123 4.96394 2.82569 5.11928 2.98103C5.12414 2.98589 5.12899 2.99074 5.13384 2.99559C5.42996 3.27229 5.71151 3.55869 6.00762 3.86452C6.1581 4.01985 6.31344 4.17519 6.46878 4.33538L7.794 5.66061C8.30856 6.17517 8.30856 6.65089 7.794 7.16544C7.65323 7.30622 7.51731 7.44699 7.37653 7.58291C6.96877 8.00038 6.58043 8.38873 6.1581 8.76737C6.14839 8.77707 6.13869 8.78193 6.13383 8.79164C5.71636 9.20911 5.79403 9.61687 5.88141 9.89356C5.88626 9.90813 5.89112 9.92269 5.89597 9.93725C6.24063 10.7722 6.72606 11.5586 7.46391 12.4955L7.46877 12.5003C8.80856 14.1508 10.2212 15.4372 11.7794 16.4226C11.9784 16.5488 12.1823 16.6508 12.3765 16.7478C12.5512 16.8352 12.7163 16.9177 12.857 17.0051C12.8765 17.0148 12.8959 17.0294 12.9153 17.0391C13.0803 17.1216 13.2357 17.1605 13.3959 17.1605C13.7988 17.1605 14.0512 16.908 14.1337 16.8255L15.7939 15.1653C15.959 15.0003 16.2211 14.8013 16.5269 14.8013C16.8279 14.8013 17.0754 14.9906 17.2259 15.1556C17.2308 15.1605 17.2308 15.1605 17.2356 15.1653L19.9104 17.8401C20.4104 18.3352 20.4104 18.8449 19.9152 19.3595Z" fill="black"/>
<path d="M12.4298 5.47092C13.7016 5.68451 14.857 6.28644 15.7793 7.20876C16.7016 8.13108 17.2987 9.2864 17.5171 10.5582C17.5705 10.8786 17.8472 11.1019 18.1627 11.1019C18.2016 11.1019 18.2356 11.0971 18.2744 11.0922C18.6336 11.034 18.8715 10.6942 18.8132 10.3349C18.5511 8.79612 17.8229 7.39322 16.7113 6.28159C15.5997 5.16995 14.1968 4.4418 12.658 4.17967C12.2987 4.12142 11.9638 4.35928 11.9007 4.71365C11.8376 5.06801 12.0706 5.41267 12.4298 5.47092Z" fill="black"/>
<path d="M22.9734 10.1458C22.5414 7.61184 21.3472 5.30604 19.5123 3.47111C17.6773 1.63618 15.3715 0.442024 12.8376 0.00999088C12.4832 -0.0531151 12.1483 0.1896 12.0852 0.543965C12.0269 0.903184 12.2648 1.23813 12.624 1.30124C14.8861 1.68473 16.9492 2.75753 18.59 4.39343C20.2307 6.03419 21.2987 8.09727 21.6821 10.3594C21.7355 10.6798 22.0122 10.9031 22.3278 10.9031C22.3666 10.9031 22.4006 10.8982 22.4394 10.8933C22.7938 10.84 23.0365 10.5002 22.9734 10.1458Z" fill="black"/>
</g>
</mask>
<g mask="url(#mask0_90309_65)">
<rect x="-9.06055" y="-81.5454" width="130.333" height="120.576" fill="white"/>
</g>
<defs>
<clipPath id="clip0_90309_65">
<rect width="23" height="23" fill="white"/>
</clipPath>
</defs>
</svg>
